<svg width="1788" height="512" viewBox="0 0 1788 512" fill="none" xmlns="http://www.w3.org/2000/svg">
<circle cx="1064.48" cy="255.322" r="16.7816" fill="white"/>
<rect x="994" y="111.001" width="33.5632" height="292" rx="16.7816" fill="white"/>
<rect x="994" y="403" width="33.5632" height="134.253" rx="16.7816" transform="rotate(-90 994 403)" fill="white"/>
<rect x="994" y="144.563" width="33.5632" height="134.253" rx="16.7816" transform="rotate(-90 994 144.563)" fill="white"/>
<rect x="1418" y="111" width="33.5632" height="292" rx="16.7816" fill="white"/>
<rect x="1418" y="403" width="33.5632" height="134.253" rx="16.7816" transform="rotate(-90 1418 403)" fill="white"/>
<rect x="590" y="109.595" width="33.7494" height="293.62" rx="16.8747" fill="white"/>
<rect x="617.107" y="294.784" width="33.7494" height="230.618" rx="16.8747" transform="rotate(-137.045 617.107 294.784)" fill="white"/>
<rect x="683.627" y="293.193" width="33.7494" height="129.482" rx="16.8747" transform="rotate(-26.6722 683.627 293.193)" fill="white"/>
<circle cx="683.495" cy="264.627" r="16.8747" fill="white"/>
<circle cx="1174.57" cy="343.823" r="16.4045" transform="rotate(-180 1174.57 343.823)" fill="white"/>
<rect x="1191.01" y="317.447" width="32.8439" height="186.507" rx="16.422" transform="rotate(-180 1191.01 317.447)" fill="white"/>
<path d="M1163 156.417C1156.83 148.554 1158.15 137.064 1166.71 131.908C1183.37 121.883 1201.92 115.253 1221.28 112.477C1246.64 108.842 1272.51 111.944 1296.29 121.47C1320.07 130.997 1340.93 146.613 1356.77 166.75C1372.6 186.888 1382.86 210.838 1386.51 236.195C1390.16 261.552 1387.08 287.423 1377.56 311.21C1368.05 334.997 1352.45 355.862 1332.32 371.71C1312.19 387.559 1288.25 397.832 1262.89 401.498C1243.53 404.298 1223.87 403.169 1205.06 398.25C1195.39 395.721 1190.88 385.07 1194.59 375.784V375.784C1198.29 366.499 1208.82 362.137 1218.59 364.269C1231.39 367.065 1244.64 367.555 1257.71 365.665C1276.78 362.908 1294.79 355.182 1309.92 343.264C1325.06 331.346 1336.79 315.655 1343.95 297.767C1351.1 279.878 1353.42 260.423 1350.67 241.354C1347.93 222.285 1340.21 204.275 1328.31 189.131C1316.4 173.987 1300.71 162.243 1282.83 155.079C1264.95 147.915 1245.49 145.583 1226.42 148.317C1213.35 150.19 1200.77 154.399 1189.28 160.693C1180.51 165.495 1169.18 164.28 1163 156.417V156.417Z" fill="white"/>
<rect x="1633" y="316.471" width="37.2369" height="129.482" rx="18.6185" transform="rotate(-90 1633 316.471)" fill="white"/>
<path d="M1737.08 346.777C1744.59 351.93 1747.06 362.084 1741.39 369.164C1730.31 383.006 1715.88 393.252 1699.65 398.592C1678.59 405.521 1655.97 403.709 1636.03 393.5C1616.1 383.291 1600.25 365.388 1591.45 343.168C1582.66 320.949 1581.54 295.947 1588.3 272.878C1595.06 249.809 1609.24 230.266 1628.16 217.935C1647.08 205.604 1669.43 201.336 1691.01 205.936C1712.59 210.537 1731.89 223.688 1745.28 242.909C1755.48 257.536 1761.71 274.908 1763.44 293.035C1764.34 302.505 1755.98 309.692 1746.5 308.969V308.969C1737.14 308.255 1730.3 300.032 1728.55 290.804C1726.84 281.82 1723.32 273.299 1718.17 265.908C1709.87 253.991 1697.9 245.837 1684.52 242.985C1671.14 240.133 1657.28 242.779 1645.55 250.424C1633.82 258.069 1625.03 270.186 1620.84 284.489C1616.65 298.792 1617.34 314.293 1622.8 328.069C1628.25 341.845 1638.08 352.945 1650.44 359.274C1662.79 365.604 1676.82 366.727 1689.88 362.431C1697.13 360.044 1703.81 356.076 1709.54 350.832C1717.1 343.919 1728.6 340.956 1737.08 346.777V346.777Z" fill="white"/>
<path d="M796 217.655C796 208.457 803.457 201 812.655 201V201C821.854 201 829.31 208.457 829.31 217.655V386.549C829.31 395.748 821.854 403.204 812.655 403.204V403.204C803.457 403.204 796 395.748 796 386.549V217.655Z" fill="white"/>
<path d="M930.69 286.045C930.69 276.847 938.146 269.39 947.345 269.39V269.39C956.543 269.39 964 276.847 964 286.045V346.345C964 355.543 956.543 363 947.345 363V363C938.146 363 930.69 355.543 930.69 346.345V286.045Z" fill="white"/>
<path d="M813.145 296.471C804.513 298.013 795.896 292.546 796.005 283.777C796.073 278.27 796.895 272.771 798.469 267.392C801.52 256.963 807.316 247.256 815.423 238.996C823.53 230.736 833.738 224.139 845.282 219.698C856.825 215.257 869.405 213.089 882.078 213.354C894.751 213.62 907.189 216.313 918.459 221.233C929.729 226.152 939.539 233.169 947.155 241.758C954.77 250.348 959.992 260.287 962.431 270.83C963.714 276.377 964.209 282.015 963.92 287.627C963.476 296.254 954.744 301.191 946.313 299.311V299.311C936.849 297.201 931.578 287.119 929.733 277.6C929.65 277.169 929.558 276.738 929.459 276.308C927.995 269.982 924.862 264.019 920.293 258.865C915.724 253.711 909.837 249.501 903.075 246.55C896.313 243.598 888.85 241.982 881.247 241.823C873.643 241.663 866.095 242.964 859.169 245.629C852.243 248.293 846.118 252.252 841.254 257.208C836.39 262.163 832.912 267.988 831.081 274.245C830.94 274.728 830.809 275.212 830.688 275.697C828.357 285.052 822.636 294.775 813.145 296.471V296.471Z" fill="white"/>
<circle cx="946.782" cy="385.782" r="16.7816" fill="white"/>
<path d="M218.109 152.671L290.685 225.249C293.821 228.385 298.583 229.133 302.505 227.187C306.455 225.227 308.709 220.973 308.108 216.586C305.576 198.392 300.142 180.833 291.954 164.397C283.776 147.97 273.044 133.05 260.052 120.049L255.412 115.412L258.149 112.675C263.633 107.191 264.369 98.7409 260.38 92.4472L276.203 60.6125C279.1 54.7809 277.953 47.7692 273.349 43.1657L265.044 34.8614C260.441 30.2579 253.428 29.1089 247.596 32.0076L215.761 47.8297C209.466 43.8407 201.018 44.5774 195.534 50.0612L192.799 52.7957L188.159 48.1551C162.226 22.232 127.943 5.16619 91.5885 0.0976352C86.985 -0.544238 82.5143 2.02814 80.7275 6.35907C79.1399 10.2064 80.0231 14.5911 82.9628 17.5132L155.538 90.0986C150.823 95.1808 149.949 102.551 152.929 108.48L105.672 161.872C102.99 164.903 103.272 169.533 106.303 172.215C109.323 174.888 113.955 174.624 116.646 171.584L162.759 119.485L188.723 145.448L22.7693 292.336C20.8398 294.046 17.9001 293.956 16.0761 292.132C14.253 290.309 14.1632 287.37 15.8729 285.438L94.0124 197.155C96.6942 194.124 96.4118 189.494 93.3812 186.811C90.3516 184.129 85.7198 184.411 83.038 187.443L4.89948 275.725C-1.93544 283.445 -1.57787 295.204 5.7133 302.494C13.0142 309.795 24.7741 310.133 32.4815 303.309L199.726 155.279C202.022 156.432 204.533 157.02 207.047 157.02C211.026 157.021 214.994 155.56 218.109 152.671ZM278.837 170.93C284.238 181.774 288.329 193.154 291.055 204.891L228.494 142.331L245.049 125.775L249.69 130.412C261.558 142.288 271.364 155.919 278.837 170.93ZM254.117 45.1304C254.308 45.0366 254.534 45.0737 254.681 45.2222L262.987 53.5275C263.136 53.676 263.172 53.9026 263.08 54.0902L249.639 81.1339L227.075 58.5696L254.117 45.1304ZM103.354 17.183C131.367 23.7473 157.407 38.1362 177.796 58.5179L182.436 63.1585L165.878 79.7163L103.354 17.183ZM166.312 102.313C165.676 101.678 165.676 100.643 166.312 100.008L205.898 60.423C206.534 59.7869 207.569 59.7899 208.201 60.423L247.786 100.008C248.421 100.644 248.421 101.678 247.786 102.314L208.202 141.898C207.568 142.533 206.532 142.534 205.898 141.899L166.312 102.313ZM329.222 266.938C332.085 269.8 336.723 269.8 339.585 266.938C342.447 264.076 342.447 259.437 339.585 256.576L320.788 237.779C317.925 234.918 313.287 234.918 310.425 237.779C307.564 240.641 307.564 245.28 310.425 248.141L329.222 266.938ZM359.459 233.713C363.244 234.812 367.397 232.644 368.534 228.71C369.657 224.823 367.418 220.759 363.531 219.635L334.37 211.2C330.483 210.077 326.42 212.314 325.295 216.203C324.171 220.09 326.411 224.153 330.298 225.278L359.459 233.713ZM288.85 252.65C284.962 253.774 282.723 257.838 283.847 261.725L292.282 290.885C293.412 294.816 297.555 296.987 301.357 295.888C305.244 294.763 307.484 290.7 306.36 286.813L297.925 257.653C296.798 253.764 292.738 251.526 288.85 252.65Z" fill="white"/>
<path d="M492.673 209.597C496.72 209.597 500 206.316 500 202.269V21.983C500 9.86162 490.138 0.000997872 478.018 0.000997872H330.624C317.308 -0.144572 310.108 15.6697 318.323 25.6955L394.559 120.391C396.751 123.115 397.826 126.534 397.583 130.022L388.21 264.952C387.846 270.202 384.603 274.725 379.748 276.755L281.672 317.755C268.594 323.222 261.591 337.172 265.019 350.924L276.432 396.722C277.636 401.557 276.137 406.688 272.517 410.112L206.111 472.949C195.883 482.648 202.901 500.215 216.965 500.212H478.016C490.136 500.212 499.998 490.351 499.998 478.23V236.428C499.998 232.382 496.718 229.101 492.671 229.101C488.623 229.101 485.343 232.382 485.343 236.428V478.23C485.343 482.27 482.057 485.557 478.016 485.557H216.967C216.107 485.644 215.512 484.109 216.186 483.594L282.591 420.757C290.045 413.704 293.134 403.136 290.653 393.178L279.24 347.379C277.576 340.703 280.976 333.928 287.325 331.275L385.401 290.275C395.401 286.095 402.081 276.78 402.832 265.967L412.203 131.038C412.704 123.854 410.491 116.809 405.975 111.2L329.739 16.5051C329.179 15.9413 329.861 14.5755 330.625 14.6547H478.018C482.059 14.6547 485.345 17.9412 485.345 21.982V202.268C485.345 206.316 488.625 209.597 492.673 209.597Z" fill="white"/>
<path d="M398.604 172.926C398.604 176.703 399.76 179.765 401.187 179.765H446.823C448.25 179.765 453.315 177.811 453.315 172.926C453.315 168.041 448.25 166.087 446.823 166.087H401.187C399.76 166.087 398.604 169.149 398.604 172.926Z" fill="white"/>
<path d="M398.604 214.937C398.604 218.713 399.76 221.775 401.187 221.775H446.823C448.25 221.775 453.315 219.821 453.315 214.937C453.315 210.052 448.25 208.098 446.823 208.098H401.187C399.76 208.098 398.604 211.16 398.604 214.937Z" fill="white"/>
<path d="M398.604 256.947C398.604 260.724 399.76 263.786 401.187 263.786H446.823C448.25 263.786 453.315 261.832 453.315 256.947C453.315 252.062 448.25 250.108 446.823 250.108H401.187C399.76 250.108 398.604 253.17 398.604 256.947Z" fill="white"/>
<path d="M275.504 340.967C275.504 344.744 278.19 347.806 281.504 347.806H445.146C448.46 347.806 453.315 344.875 453.315 340.967C453.315 336.082 448.46 334.128 445.146 334.128H281.504C278.19 334.128 275.504 337.19 275.504 340.967Z" fill="white"/>
<path d="M342.915 298.957C342.915 302.734 344.554 305.796 346.575 305.796H446.379C448.4 305.796 453.315 304.33 453.315 298.957C453.315 292.778 448.4 292.118 446.379 292.118H346.575C344.554 292.118 342.915 295.18 342.915 298.957Z" fill="white"/>
<path d="M421.736 412.51L412.283 425.083L401.468 421.49L405.264 447.98H438.209L442.005 421.49L431.19 425.083L421.736 412.51ZM433.34 442.379H410.132L408.313 429.667L414.344 431.674L421.736 421.846L429.129 431.674L435.16 429.667L433.34 442.379Z" fill="white"/>
<path d="M458.527 407.459C457.826 404.345 456.252 401.496 453.981 399.224C451.709 396.951 448.865 395.377 445.752 394.675C440.431 393.472 435.386 391.381 430.766 388.464C425.37 385.056 418.094 385.056 412.704 388.464C408.081 391.378 403.036 393.472 397.718 394.675C394.602 395.377 391.758 396.951 389.486 399.224C387.215 401.496 385.641 404.345 384.94 407.456C383.737 412.775 381.651 417.822 378.732 422.451C377.034 425.148 376.133 428.274 376.133 431.488C376.133 434.702 377.034 437.827 378.738 440.522C381.654 445.153 383.743 450.201 384.946 455.516C385.647 458.633 387.22 461.479 389.492 463.752C391.758 466.022 394.602 467.593 397.718 468.3C403.042 469.507 408.087 471.594 412.707 474.511C415.4 476.214 418.524 477.115 421.736 477.115C424.949 477.115 428.072 476.214 430.766 474.509C435.389 471.594 440.434 469.504 445.758 468.298C448.873 467.59 451.718 466.019 453.984 463.749C456.255 461.476 457.829 458.63 458.53 455.516C459.733 450.198 461.819 445.15 464.738 440.522C466.439 437.827 467.34 434.702 467.34 431.488C467.34 428.274 466.439 425.148 464.735 422.454C461.819 417.822 459.73 412.775 458.527 407.459V407.459ZM459.915 437.482C456.649 442.664 454.314 448.31 452.966 454.264C452.502 456.326 451.461 458.211 449.951 459.72C448.446 461.225 446.562 462.269 444.498 462.737C438.538 464.088 432.895 466.424 427.722 469.689C424.153 471.951 419.319 471.951 415.745 469.689C410.578 466.424 404.932 464.088 398.972 462.737C396.908 462.269 395.024 461.228 393.519 459.72C392.011 458.211 390.968 456.326 390.504 454.262C389.156 448.31 386.821 442.666 383.555 437.479C382.429 435.694 381.833 433.621 381.833 431.488C381.833 429.355 382.429 427.281 383.558 425.493C386.824 420.312 389.158 414.666 390.507 408.711C390.971 406.649 392.011 404.764 393.522 403.256C395.033 401.747 396.914 400.704 398.977 400.239C404.934 398.89 410.575 396.551 415.751 393.286C417.532 392.16 419.604 391.564 421.736 391.564C423.868 391.564 425.94 392.16 427.728 393.289C432.898 396.554 438.541 398.893 444.501 400.242C446.562 400.706 448.446 401.747 449.954 403.259C451.461 404.77 452.504 406.652 452.969 408.717C454.317 414.668 456.652 420.312 459.918 425.499C461.044 427.281 461.639 429.355 461.639 431.488C461.639 433.621 461.044 435.694 459.915 437.482V437.482Z" fill="white"/>
</svg>
